<svg width="21" height="21" viewBox="0 0 21 21" fill="none" xmlns="http://www.w3.org/2000/svg">
<path fill-rule="evenodd" clip-rule="evenodd" d="M18.8336 1.32357C19.0402 1.49857 19.1593 1.75561 19.1593 2.02635V14C19.1593 16.0347 17.5098 17.6842 15.4751 17.6842C13.4404 17.6842 11.7909 16.0347 11.7909 14C11.7909 11.9653 13.4404 10.3158 15.4751 10.3158C16.1462 10.3158 16.7754 10.4952 17.3172 10.8087V3.11361L8.1067 4.6487V15.8421L8.10669 15.8451C8.10508 17.8785 6.45623 19.5263 4.42249 19.5263C2.38776 19.5263 0.738281 17.8768 0.738281 15.8421C0.738281 13.8074 2.38776 12.1579 4.42249 12.1579C5.09354 12.1579 5.7227 12.3373 6.2646 12.6508V3.86845C6.2646 3.41821 6.59011 3.03395 7.03423 2.95993L18.0869 1.11782C18.354 1.07332 18.6271 1.14856 18.8336 1.32357ZM17.3172 14C17.3172 12.9826 16.4925 12.1579 15.4751 12.1579C14.4577 12.1579 13.633 12.9826 13.633 14C13.633 15.0174 14.4577 15.8421 15.4751 15.8421C16.4925 15.8421 17.3172 15.0174 17.3172 14ZM4.42249 14C5.43986 14 6.2646 14.8247 6.2646 15.8421C6.2646 16.8595 5.43986 17.6842 4.42249 17.6842C3.40512 17.6842 2.58039 16.8595 2.58039 15.8421C2.58039 14.8247 3.40512 14 4.42249 14Z" fill="#58525F"/>
</svg>
